<?xml version="1.0" encoding="UTF-8"?>
<svg width="54px" height="54px" viewBox="0 0 54 54" version="1.1" xmlns="http://www.w3.org/2000/svg" xmlns:xlink="http://www.w3.org/1999/xlink">
    <title>5E576504-68E0-47A1-B8C6-6B5B42F2D7FC</title>
    <g id="Website" stroke="none" stroke-width="1" fill="none" fill-rule="evenodd">
        <g id="Desktop" transform="translate(-454.000000, -1277.000000)">
            <g id="Section_2" transform="translate(203.000000, 875.000000)">
                <g id="Train" transform="translate(24.000000, 285.000000)">
                    <g id="3" transform="translate(149.000000, 117.000000)">
                        <g id="ico_3" transform="translate(78.000000, 0.000000)">
                            <polygon id="Path" points="54 54 0 54 0 0 54 0"></polygon>
                            <path d="M27,6.75 C15.8162338,6.75 6.75,15.8162338 6.75,27 C6.75,38.1837661 15.8162338,47.25 27,47.25 C38.1837661,47.25 47.25,38.1837661 47.25,27 C47.2439347,25.484443 47.0640949,23.9745802 46.714005,22.5" id="Path" stroke="#2FA4ED" stroke-width="3.375" stroke-linecap="round" stroke-linejoin="round"></path>
                            <path d="M37.1989125,28.8237375 C37.4478512,28.7188907 37.7348555,28.766043 37.9371636,28.9450258 C38.1394715,29.1240083 38.221256,29.4031249 38.147535,29.6629875 C37.6304713,31.6663805 36.5868227,33.4949526 35.12484,34.9590375 C30.8253654,39.4901777 23.6667377,39.6779796 19.1355975,35.378505 C14.6044573,31.0790304 14.4166554,23.9204027 18.71613,19.3892625 C18.8523,19.2457875 18.992145,19.10595 19.135665,18.96975 C20.599316,17.5072102 22.4280424,16.463469 24.4316925,15.947055 C24.691552,15.8733535 24.970655,15.9551442 25.1496322,16.157446 C25.3286096,16.3597478 25.3757696,16.6467394 25.2709425,16.8956775 C23.5411457,20.3187656 24.205037,24.4656497 26.9170223,27.1776353 C29.6290078,29.8896206 33.7758919,30.5535119 37.19898,28.823715 L37.1989125,28.8237375 Z" id="Path" stroke="#2FA4ED" stroke-width="3.375" stroke-linecap="round" stroke-linejoin="round"></path>
                            <polyline id="Path" stroke="#2FA4ED" stroke-width="3.375" stroke-linecap="round" stroke-linejoin="round" points="36 6.75 43.875 6.75 36 15.75 43.875 15.75"></polyline>
                        </g>
                    </g>
                </g>
            </g>
        </g>
    </g>
</svg>