<?xml version="1.0" encoding="UTF-8"?>
<svg width="54px" height="54px" viewBox="0 0 54 54" version="1.1" xmlns="http://www.w3.org/2000/svg" xmlns:xlink="http://www.w3.org/1999/xlink">
    <title>A4AA324C-F766-41DB-80C3-DD65CDF1583A</title>
    <g id="Website" stroke="none" stroke-width="1" fill="none" fill-rule="evenodd">
        <g id="Desktop" transform="translate(-1108.000000, -1417.000000)">
            <g id="Section_2" transform="translate(203.000000, 875.000000)">
                <g id="Train" transform="translate(24.000000, 285.000000)">
                    <g id="7" transform="translate(737.000000, 257.000000)">
                        <g id="ico_7" transform="translate(144.000000, 0.000000)">
                            <polygon id="Path" points="0 0 54 0 54 54 0 54"></polygon>
                            <line x1="30.6" y1="17.1" x2="30.6" y2="6.75" id="Path" stroke="#2FA4ED" stroke-width="3.375" stroke-linecap="round" stroke-linejoin="round"></line>
                            <path d="M23.4,6.75 L23.4,17.1 C23.4,20.08125 20.98125,22.5 18,22.5 L18,22.5" id="Path" stroke="#2FA4ED" stroke-width="3.375" stroke-linecap="round" stroke-linejoin="round"></path>
                            <path d="M36,22.5 C33.01875,22.5 30.6,20.08125 30.6,17.1" id="Path" stroke="#2FA4ED" stroke-width="3.375" stroke-linecap="round" stroke-linejoin="round"></path>
                            <path d="M36,29.25 C32.4135,29.25 29.223,27.66825 27,25.1955" id="Path" stroke="#2FA4ED" stroke-width="3.375" stroke-linecap="round" stroke-linejoin="round"></path>
                            <path d="M18,29.25 C21.5865,29.25 24.777,27.66825 27,25.1955" id="Path" stroke="#2FA4ED" stroke-width="3.375" stroke-linecap="round" stroke-linejoin="round"></path>
                            <path d="M30.375,35.991 L30.375,39.069 C30.375,41.625 31.8195,43.9605 34.1055,45.1035 L36.47475,46.287 C42.45975,49.2795 49.5,44.93025 49.5,38.241 L49.5,24.41475 C49.5,22.37175 48.80475,20.3895 47.52675,18.79425 L43.5195,13.788 C41.5215,11.28825 38.50875,10.76175 36,11.65725" id="Path" stroke="#2FA4ED" stroke-width="3.375" stroke-linecap="round" stroke-linejoin="round"></path>
                            <path d="M23.625,35.991 L23.625,39.069 C23.625,41.625 22.1805,43.9605 19.8945,45.1035 L17.52525,46.287 C11.54025,49.2795 4.5,44.93025 4.5,38.241 L4.5,24.41475 C4.5,22.37175 5.19525,20.3895 6.47325,18.79425 L10.4805,13.788 C12.4785,11.28825 15.49125,10.76175 18,11.65725" id="Path" stroke="#2FA4ED" stroke-width="3.375" stroke-linecap="round" stroke-linejoin="round"></path>
                        </g>
                    </g>
                </g>
            </g>
        </g>
    </g>
</svg>