<?xml version="1.0" encoding="UTF-8"?>
<svg width="54px" height="54px" viewBox="0 0 54 54" version="1.1" xmlns="http://www.w3.org/2000/svg" xmlns:xlink="http://www.w3.org/1999/xlink">
    <title>ADB7A891-5887-4CA8-B2DD-605685E8FE0E</title>
    <g id="Website" stroke="none" stroke-width="1" fill="none" fill-rule="evenodd">
        <g id="Desktop" transform="translate(-1108.000000, -1347.000000)">
            <g id="Section_2" transform="translate(203.000000, 875.000000)">
                <g id="Train" transform="translate(24.000000, 285.000000)">
                    <g id="4" transform="translate(675.000000, 187.000000)">
                        <g id="ico_4" transform="translate(206.000000, 0.000000)">
                            <polygon id="Path" points="0 0 54 0 54 54 0 54"></polygon>
                            <path d="M41.319,12.68109 C49.22712,20.58921 49.22712,33.41079 41.319,41.318865 C33.41088,49.226985 20.5893,49.226985 12.681225,41.318865 C4.773105,33.410745 4.773105,20.589165 12.681225,12.68109 C20.589345,4.77297 33.410925,4.77297 41.319,12.68109" id="Path" stroke="#2FA4ED" stroke-width="3.375" stroke-linecap="round" stroke-linejoin="round"></path>
                            <path d="M38.25,20.79 C37.36125,21.88125 36.14625,22.5 34.875,22.5 C33.60375,22.5 32.4225,21.88125 31.5,20.79" id="Path" stroke="#2FA4ED" stroke-width="3.375" stroke-linecap="round" stroke-linejoin="round"></path>
                            <path d="M22.5,20.79 C21.61125,21.88125 20.39625,22.5 19.125,22.5 C17.85375,22.5 16.6725,21.88125 15.75,20.79" id="Path" stroke="#2FA4ED" stroke-width="3.375" stroke-linecap="round" stroke-linejoin="round"></path>
                            <path d="M34.875,33.048 C34.875,33.048 31.92075,36 27,36 C22.077,36 19.125,33.048 19.125,33.048" id="Path" stroke="#2FA4ED" stroke-width="3.375" stroke-linecap="round" stroke-linejoin="round"></path>
                        </g>
                    </g>
                </g>
            </g>
        </g>
    </g>
</svg>