<?xml version="1.0" encoding="UTF-8"?>
<svg width="54px" height="54px" viewBox="0 0 54 54" version="1.1" xmlns="http://www.w3.org/2000/svg" xmlns:xlink="http://www.w3.org/1999/xlink">
    <title>57281CDC-650D-4CCB-BC97-08A2DB6ECC57</title>
    <g id="Website" stroke="none" stroke-width="1" fill="none" fill-rule="evenodd">
        <g id="Desktop" transform="translate(-454.000000, -1347.000000)">
            <g id="Section_2" transform="translate(203.000000, 875.000000)">
                <g id="Train" transform="translate(24.000000, 285.000000)">
                    <g id="6" transform="translate(0.000000, 187.000000)">
                        <g id="ico_6" transform="translate(227.000000, 0.000000)">
                            <polygon id="Path" points="0 0 54 0 54 54 0 54"></polygon>
                            <path d="M25.8057,11.301255 C28.8740475,14.3696025 28.8740475,19.344375 25.8057,22.4127225 C22.7373525,25.48107 17.76258,25.48107 14.6942325,22.4127225 C11.625885,19.344375 11.625885,14.3696025 14.6942325,11.301255 C17.76258,8.2329075 22.7373525,8.2329075 25.8057,11.301255" id="Path" stroke="#2FA4ED" stroke-width="3.375" stroke-linecap="round" stroke-linejoin="round"></path>
                            <path d="M36,42.75 L36,45 C36,46.242 34.992,47.25 33.75,47.25 L6.75,47.25 C5.508,47.25 4.5,46.242 4.5,45 L4.5,42.75 L4.5,42.714 C4.5,35.9055 12.2805,31.482 20.25,31.482 C28.2195,31.482 36,35.90775 36,42.714" id="Path" stroke="#2FA4ED" stroke-width="3.375" stroke-linecap="round" stroke-linejoin="round"></path>
                            <path d="M45.45675,11.592 C47.36025,11.592 48.63825,13.26825 48.63825,14.82975 C48.63825,17.99775 43.335,20.592 43.23825,20.592" id="Path" stroke="#2FA4ED" stroke-width="3.375" stroke-linecap="round" stroke-linejoin="round"></path>
                            <path d="M41.022,11.592 C39.1185,11.592 37.8405,13.26825 37.8405,14.82975 C37.8405,17.99775 43.14375,20.592 43.2405,20.592" id="Path" stroke="#2FA4ED" stroke-width="3.375" stroke-linecap="round" stroke-linejoin="round"></path>
                            <path d="M43.2405,12.555 C43.6545,12.10275 44.37,11.592 45.459,11.592" id="Path" stroke="#2FA4ED" stroke-width="3.375" stroke-linecap="round" stroke-linejoin="round"></path>
                            <path d="M43.2405,12.555 C42.8265,12.10275 42.111,11.592 41.022,11.592" id="Path" stroke="#2FA4ED" stroke-width="3.375" stroke-linecap="round" stroke-linejoin="round"></path>
                        </g>
                    </g>
                </g>
            </g>
        </g>
    </g>
</svg>