<svg xmlns="http://www.w3.org/2000/svg" viewBox="0 0 304.94 304.94"><defs><style>.cls-1{fill:#fff;}</style></defs><g id="Layer_2" data-name="Layer 2"><g id="Layer_1-2" data-name="Layer 1"><path class="cls-1" d="M152.47,0C68.4,0,0,68.4,0,152.47S68.4,304.94,152.47,304.94s152.47-68.4,152.47-152.47S236.54,0,152.47,0Zm134,171.67c-1.28-.91-2.57-1.82-4-2.77a106.25,106.25,0,0,0-22.81-12.78,54.86,54.86,0,0,0-7.78-2.67c-32.14-7.49-62.48,15.65-91.83,38-5.19,4-10.39,7.91-15.52,11.64-6.62,4.73-12.78,8.74-18.82,12.45l0,0c-21.27-15.74-43.26-32-66-35.48a57.4,57.4,0,0,0-38.17,7A135.48,135.48,0,0,1,17,154.33c.7-.52,1.33-1,2-1.5,7-5.28,15-11.26,26.67-15.61,18.32-6.85,37.58-2.26,58,2.61,16.48,3.94,33.49,8,51,6.09,19.95-2.36,39.42-12,58.26-21.36,18.34-9.09,35.68-17.68,52.66-19.69,2-.23,8.37-.38,13.39-.42a135,135,0,0,1,8.91,48A136.62,136.62,0,0,1,286.48,171.67Zm-134-154.73a135.49,135.49,0,0,1,119,70.7c-3.19.09-6.1.22-7.74.4-19.95,2.36-39.43,12-58.26,21.35-18.35,9.09-35.68,17.68-52.65,19.7-14.54,1.61-29.41-2-45.17-5.73-22-5.25-44.7-10.68-67.86-2a100.76,100.76,0,0,0-21.23,11.07C28.3,67.1,84.45,16.94,152.47,16.94ZM27.06,203.76c5.11-2.95,17.36-8.91,30.13-7,16.63,2.54,33.91,14.31,52.06,27.65C89.63,233.3,65.69,239,47.65,238.36A135.37,135.37,0,0,1,27.06,203.76ZM64,255c19-1.16,39.65-7.72,60.62-19.23,20,14.8,48.19,35.3,76.88,42.89A134.7,134.7,0,0,1,64,255Zm163.74,10.1-8.57-.49-4.06-.4c-25.73-3.42-53.89-22.59-74.73-37.86,4.54-2.94,9.18-6.06,14.06-9.54,5.3-3.85,10.59-7.88,15.89-11.91,27.44-20.9,53.38-40.62,77.66-35,5.93,1.43,15.33,6.46,25.6,13.45,2.1,1.54,4.16,3.08,6,4.56l.09-.12c1,.7,1.91,1.38,2.87,2.11A135.65,135.65,0,0,1,227.78,265.13Z"/></g></g></svg>