<?xml version="1.0" encoding="UTF-8"?>
<svg width="72px" height="72px" viewBox="0 0 72 72" version="1.1" xmlns="http://www.w3.org/2000/svg" xmlns:xlink="http://www.w3.org/1999/xlink">
    <title>A2C44604-C9B4-4350-8735-ED314C107F8B</title>
    <defs>
        <linearGradient x1="34.1763409%" y1="100%" x2="65.3906297%" y2="1.36829723%" id="linearGradient-1">
            <stop stop-color="#2FA4ED" stop-opacity="0" offset="0%"></stop>
            <stop stop-color="#2FA4ED" stop-opacity="0.333082079" offset="100%"></stop>
        </linearGradient>
    </defs>
    <g id="onboarding" stroke="none" stroke-width="1" fill="none" fill-rule="evenodd">
        <g id="login" transform="translate(-268.000000, -80.000000)">
            <g id="exit-login-logout" transform="translate(268.000000, 80.000000)">
                <polygon id="Path" points="0 0 72 0 72 72 0 72"></polygon>
                <g id="Group-2" transform="translate(9.000000, 9.002925)" stroke="#2FA4ED" stroke-linecap="round" stroke-linejoin="round" stroke-width="3">
                    <path d="M14.7222225,2.94157351 L6.62500026,2.94157351 C4.86779016,2.94108154 3.18240948,3.63891254 1.93987426,4.88144777 C0.697339034,6.12398299 -0.000491965369,7.80936367 -1.91780748e-14,9.56657377 L-1.91780748e-14,43.4276849 C-0.000484148372,45.1848926 0.697349361,46.8702687 1.93988289,48.1128022 C3.18241642,49.3553358 4.86779256,50.0531693 6.62500026,50.0526851 L14.7222225,50.0526851" id="Path"></path>
                    <path d="M31.240173,52.8381293 L47.802673,49.1811293 C50.8386129,48.511627 53.0004048,45.8208046 53.0000003,42.7119199 L53.0000003,10.2823388 C53.0004048,7.17345409 50.8386129,4.48263169 47.802673,3.81312932 L31.240173,0.156129324 C29.2794973,-0.277206923 27.2280972,0.202325512 25.6626897,1.45991405 C24.0972822,2.71750258 23.1869067,4.61734743 23.1875,6.62533877 L23.1875,46.3721293 C23.1875,48.3796328 24.0984002,50.2787061 25.6637319,51.5356098 C27.2290635,52.7925135 29.2800194,53.2715664 31.240173,52.8381293 Z" id="Path" fill="url(#linearGradient-1)"></path>
                    <path d="M32.682038,26.2039215 C32.8434305,26.3657259 32.843208,26.6276946 32.6815407,26.7892245 C32.5198735,26.9507544 32.2579048,26.9507544 32.0962376,26.7892245 C31.9345703,26.6276946 31.9343478,26.3657259 32.0957403,26.2039215 C32.1734194,26.1260442 32.278894,26.0822764 32.3888891,26.0822764 C32.4988843,26.0822764 32.6043589,26.1260442 32.682038,26.2039215" id="Path"></path>
                </g>
            </g>
        </g>
    </g>
</svg>